<?xml version="1.0" encoding="UTF-8" standalone="no"?>
<!DOCTYPE svg PUBLIC "-//W3C//DTD SVG 1.1//EN" "http://www.w3.org/Graphics/SVG/1.1/DTD/svg11.dtd">
<svg width="100%" height="100%" viewBox="0 0 493 133" version="1.1" xmlns="http://www.w3.org/2000/svg" xmlns:xlink="http://www.w3.org/1999/xlink" xml:space="preserve" xmlns:serif="http://www.serif.com/" style="fill-rule:evenodd;clip-rule:evenodd;stroke-linejoin:round;stroke-miterlimit:1.41421;">
    <g transform="matrix(1.38355,0,0,1.38355,-539.678,-367.519)">
        <path d="M412.764,276.502C406.684,276.502 402.564,279.502 402.564,284.302C402.564,294.262 417.684,290.782 417.684,297.022C417.684,299.182 415.724,300.422 412.444,300.422C409.444,300.422 405.844,298.982 402.964,296.342L400.924,300.422C403.804,303.062 407.964,304.862 412.364,304.862C418.524,304.862 422.924,301.782 422.924,296.782C422.964,286.702 407.844,289.982 407.844,283.862C407.844,281.982 409.644,280.942 412.404,280.942C414.524,280.942 417.564,281.702 420.604,283.542L422.564,279.382C419.964,277.662 416.404,276.502 412.764,276.502Z" style="fill-rule:nonzero;"/>
        <path d="M440.844,276.582C432.564,276.582 426.124,282.702 426.124,290.662C426.124,298.702 432.484,304.902 440.684,304.902C444.644,304.902 448.684,303.102 451.524,300.302L448.724,297.182C446.604,299.222 443.724,300.502 440.924,300.502C435.324,300.502 430.924,296.142 430.924,290.622C430.924,285.102 435.324,280.782 440.924,280.782C443.764,280.782 446.684,282.142 448.724,284.342L451.484,280.902C448.764,278.222 444.804,276.582 440.844,276.582Z" style="fill-rule:nonzero;"/>
        <path d="M468.244,276.582C459.884,276.582 453.404,282.662 453.404,290.702C453.404,298.702 459.884,304.902 468.244,304.902C476.604,304.902 483.084,298.702 483.084,290.702C483.084,282.702 476.604,276.582 468.244,276.582ZM468.284,280.822C473.764,280.822 478.244,285.142 478.244,290.702C478.244,296.262 473.764,300.662 468.284,300.662C462.804,300.662 458.204,296.262 458.204,290.702C458.204,285.142 462.764,280.822 468.284,280.822Z" style="fill-rule:nonzero;"/>
        <path d="M506.684,280.942L506.684,276.702L484.244,276.702L484.244,280.942L493.084,280.942L493.084,304.702L497.804,304.702L497.804,280.942L506.684,280.942Z" style="fill-rule:nonzero;"/>
        <path d="M529.844,280.942L529.844,276.702L507.404,276.702L507.404,280.942L516.244,280.942L516.244,304.702L520.964,304.702L520.964,280.942L529.844,280.942Z" style="fill-rule:nonzero;"/>
        <path d="M548.924,300.422L548.924,276.702L544.204,276.702L544.204,304.702L561.044,304.702L561.044,300.422L548.924,300.422Z" style="fill-rule:nonzero;"/>
        <path d="M589.364,276.702L584.644,276.702L584.644,293.102C584.644,297.862 581.804,300.662 577.244,300.662C572.644,300.662 569.724,297.822 569.724,293.102L569.724,276.702L565.004,276.702L565.004,293.102C565.004,300.422 569.644,304.902 577.204,304.902C584.764,304.902 589.364,300.422 589.364,293.102L589.364,276.702Z" style="fill-rule:nonzero;"/>
        <path d="M608.524,276.582C600.244,276.582 593.804,282.702 593.804,290.662C593.804,298.702 600.164,304.902 608.364,304.902C612.324,304.902 616.364,303.102 619.204,300.302L616.404,297.182C614.284,299.222 611.404,300.502 608.604,300.502C603.004,300.502 598.604,296.142 598.604,290.622C598.604,285.102 603.004,280.782 608.604,280.782C611.444,280.782 614.364,282.142 616.404,284.342L619.164,280.902C616.444,278.222 612.484,276.582 608.524,276.582Z" style="fill-rule:nonzero;"/>
        <path d="M635.804,276.582C627.524,276.582 621.084,282.702 621.084,290.662C621.084,298.702 627.444,304.902 635.644,304.902C639.604,304.902 643.644,303.102 646.484,300.302L643.684,297.182C641.564,299.222 638.684,300.502 635.884,300.502C630.284,300.502 625.884,296.142 625.884,290.622C625.884,285.102 630.284,280.782 635.884,280.782C638.724,280.782 641.644,282.142 643.684,284.342L646.444,280.902C643.724,278.222 639.764,276.582 635.804,276.582Z" style="fill-rule:nonzero;"/>
        <path d="M675.564,304.702L675.564,276.702L670.844,276.702L670.844,288.862L656.004,288.862L656.004,276.702L651.284,276.702L651.284,304.702L656.004,304.702L656.004,293.102L670.844,293.102L670.844,304.702L675.564,304.702Z" style="fill-rule:nonzero;"/>
        <rect x="682.924" y="276.702" width="4.72" height="28" style="fill-rule:nonzero;"/>
        <path d="M719.284,304.702L719.284,276.702L714.644,276.702L714.644,296.822L699.644,276.702L695.004,276.702L695.004,304.702L699.724,304.702L699.724,284.622L714.644,304.702L719.284,304.702Z" style="fill-rule:nonzero;"/>
        <rect x="726.684" y="276.702" width="4.72" height="28" style="fill-rule:nonzero;"/>
        <path d="M401.807,306.483L401.807,319.179L403.258,319.179L403.258,315.171L406.577,315.171C409.715,315.171 411.529,313.557 411.529,310.745C411.529,308.042 409.715,306.483 406.577,306.483L401.807,306.483ZM403.258,307.879L406.523,307.879C408.808,307.879 410.132,308.859 410.132,310.781C410.132,312.758 408.808,313.774 406.523,313.774L403.258,313.774L403.258,307.879Z" style="fill-rule:nonzero;"/>
        <path d="M443.807,319.179L443.807,306.483L442.356,306.483L442.356,312.214L434.702,312.214L434.702,306.483L433.251,306.483L433.251,319.179L434.702,319.179L434.702,313.593L442.356,313.593L442.356,319.179L443.807,319.179Z" style="fill-rule:nonzero;"/>
        <path d="M472.421,306.446C468.703,306.446 465.764,309.24 465.764,312.831C465.764,316.404 468.703,319.252 472.421,319.252C476.121,319.252 479.06,316.404 479.06,312.831C479.06,309.258 476.121,306.446 472.421,306.446ZM472.421,307.825C475.251,307.825 477.572,310.038 477.572,312.831C477.572,315.624 475.251,317.855 472.421,317.855C469.592,317.855 467.234,315.624 467.234,312.831C467.234,310.038 469.592,307.825 472.421,307.825Z" style="fill-rule:nonzero;"/>
        <path d="M508.817,307.879L508.817,306.483L499.077,306.483L499.077,307.879L503.213,307.879L503.213,319.179L504.664,319.179L504.664,307.879L508.817,307.879Z" style="fill-rule:nonzero;"/>
        <path d="M534.606,306.446C530.888,306.446 527.949,309.24 527.949,312.831C527.949,316.404 530.888,319.252 534.606,319.252C538.306,319.252 541.245,316.404 541.245,312.831C541.245,309.258 538.306,306.446 534.606,306.446ZM534.606,307.825C537.436,307.825 539.757,310.038 539.757,312.831C539.757,315.624 537.436,317.855 534.606,317.855C531.777,317.855 529.419,315.624 529.419,312.831C529.419,310.038 531.777,307.825 534.606,307.825Z" style="fill-rule:nonzero;"/>
        <path d="M571.644,312.976L571.644,316.803C570.665,317.474 569.449,317.873 568.307,317.873C565.405,317.873 563.065,315.642 563.065,312.831C563.065,310.038 565.386,307.807 568.289,307.807C569.703,307.807 571.1,308.351 572.134,309.276L572.968,308.188C571.753,307.117 570.048,306.446 568.289,306.446C564.552,306.446 561.596,309.258 561.596,312.831C561.596,316.404 564.534,319.252 568.216,319.252C569.921,319.252 571.68,318.581 572.932,317.583L572.932,312.976L571.644,312.976Z" style="fill-rule:nonzero;"/>
        <path d="M604.067,319.179L605.718,319.179L602.743,314.862C604.575,314.264 605.591,312.849 605.591,310.745C605.591,308.042 603.759,306.483 600.585,306.483L595.76,306.483L595.76,319.179L597.211,319.179L597.211,315.171L600.585,315.171C600.875,315.171 601.165,315.153 601.437,315.135L604.067,319.179ZM597.211,313.774L597.211,307.879L600.585,307.879C602.888,307.879 604.194,308.859 604.194,310.781C604.194,312.758 602.888,313.774 600.585,313.774L597.211,313.774Z" style="fill-rule:nonzero;"/>
        <path d="M636.218,315.969L637.633,319.179L639.211,319.179L633.534,306.483L632.029,306.483L626.333,319.179L627.875,319.179L629.29,315.969L636.218,315.969ZM635.602,314.572L629.906,314.572L632.736,308.133L635.602,314.572Z" style="fill-rule:nonzero;"/>
        <path d="M660.516,306.483L660.516,319.179L661.967,319.179L661.967,315.171L665.286,315.171C668.424,315.171 670.238,313.557 670.238,310.745C670.238,308.042 668.424,306.483 665.286,306.483L660.516,306.483ZM661.967,307.879L665.232,307.879C667.517,307.879 668.841,308.859 668.841,310.781C668.841,312.758 667.517,313.774 665.232,313.774L661.967,313.774L661.967,307.879Z" style="fill-rule:nonzero;"/>
        <path d="M702.516,319.179L702.516,306.483L701.065,306.483L701.065,312.214L693.41,312.214L693.41,306.483L691.959,306.483L691.959,319.179L693.41,319.179L693.41,313.593L701.065,313.593L701.065,319.179L702.516,319.179Z" style="fill-rule:nonzero;"/>
        <path d="M730.169,314.826L734.993,306.483L733.506,306.483L729.443,313.103L725.326,306.483L723.82,306.483L728.736,314.881L728.736,319.179L730.169,319.179L730.169,314.826Z" style="fill-rule:nonzero;"/>
    </g>
    <g transform="matrix(1.50137,0,0,1.50137,-525.878,-400.443)">
        <g transform="matrix(0.334843,0,0,0.127523,250.924,233.893)">
            <rect x="296.679" y="257.643" width="11.946" height="156.834"/>
        </g>
        <g transform="matrix(2.05032e-17,-0.334843,0.127523,7.80855e-18,317.409,370.089)">
            <rect x="296.679" y="257.643" width="11.946" height="156.834"/>
        </g>
    </g>
    <g transform="matrix(9.17415e-17,-1.49825,1.49825,9.17415e-17,-399.622,613.958)">
        <g transform="matrix(0.334843,0,0,0.127523,250.924,233.893)">
            <rect x="296.679" y="257.643" width="11.946" height="156.834"/>
        </g>
        <g transform="matrix(2.05032e-17,-0.334843,0.127523,7.80855e-18,317.409,370.089)">
            <rect x="296.679" y="257.643" width="11.946" height="156.834"/>
        </g>
    </g>
    <g transform="matrix(9.1766e-17,1.49865,-1.49865,9.1766e-17,891.999,-524.925)">
        <g transform="matrix(0.334843,0,0,0.127523,250.924,233.893)">
            <rect x="296.679" y="257.643" width="11.946" height="156.834"/>
        </g>
        <g transform="matrix(2.05032e-17,-0.334843,0.127523,7.80855e-18,317.409,370.089)">
            <rect x="296.679" y="257.643" width="11.946" height="156.834"/>
        </g>
    </g>
    <g transform="matrix(1.5,0,0,1.5,-525.531,-400.074)">
        <g transform="matrix(7.80576e-17,-1.27478,1.02098,6.25169e-17,116.677,759.044)">
            <rect x="383.828" y="258.247" width="1.569" height="6.856"/>
        </g>
        <g transform="matrix(7.80576e-17,-1.27478,1.02098,6.25169e-17,133.702,759.044)">
            <rect x="383.828" y="258.247" width="1.569" height="6.856"/>
        </g>
        <g transform="matrix(7.80576e-17,-1.27478,1.02098,6.25169e-17,150.742,759.044)">
            <rect x="383.828" y="258.247" width="1.569" height="6.856"/>
        </g>
        <g transform="matrix(7.80576e-17,-1.27478,1.02098,6.25169e-17,167.767,759.044)">
            <rect x="383.828" y="258.247" width="1.569" height="6.856"/>
        </g>
        <g transform="matrix(7.80576e-17,-1.27478,1.02098,6.25169e-17,184.748,759.044)">
            <rect x="383.828" y="258.247" width="1.569" height="6.856"/>
        </g>
        <g transform="matrix(7.80576e-17,-1.27478,1.02098,6.25169e-17,201.773,759.044)">
            <rect x="383.828" y="258.247" width="1.569" height="6.856"/>
        </g>
        <g transform="matrix(7.80576e-17,-1.27478,1.02098,6.25169e-17,218.814,759.044)">
            <rect x="383.828" y="258.247" width="1.569" height="6.856"/>
        </g>
        <g transform="matrix(7.80576e-17,-1.27478,1.02098,6.25169e-17,235.838,759.044)">
            <rect x="383.828" y="258.247" width="1.569" height="6.856"/>
        </g>
    </g>
    <g transform="matrix(9.18485e-17,1.5,-1.5,9.18485e-17,892.423,-529.457)">
        <g transform="matrix(7.80576e-17,-1.27478,1.02098,6.25169e-17,119.289,759.092)">
            <rect x="383.828" y="258.247" width="1.569" height="6.856"/>
        </g>
        <g transform="matrix(7.80576e-17,-1.27478,1.02098,6.25169e-17,136.313,759.092)">
            <rect x="383.828" y="258.247" width="1.569" height="6.856"/>
        </g>
        <g transform="matrix(7.80576e-17,-1.27478,1.02098,6.25169e-17,153.354,759.092)">
            <rect x="383.828" y="258.247" width="1.569" height="6.856"/>
        </g>
        <g transform="matrix(7.80576e-17,-1.27478,1.02098,6.25169e-17,170.379,759.092)">
            <rect x="383.828" y="258.247" width="1.569" height="6.856"/>
        </g>
    </g>
</svg>
